<svg width="218" height="52" viewBox="0 0 218 52" fill="none" xmlns="http://www.w3.org/2000/svg">
<path d="M0 30C0 13.4315 13.4315 0 30 0H48C49.6569 0 51 1.34315 51 3V48C51 49.6569 49.6569 51 48 51H5C2.23858 51 0 48.7614 0 46V30Z" fill="#FDDB32"/>
<path d="M54 3C54 1.34315 55.3431 0 57 0H102C103.657 0 105 1.34315 105 3V21C105 37.5685 91.5685 51 75 51H57C55.3431 51 54 49.6569 54 48V3Z" fill="#FDDB32"/>
<path d="M125.953 41.28C124.086 41.28 122.406 40.96 120.913 40.32C119.42 39.6533 118.246 38.72 117.393 37.52C116.54 36.32 116.113 34.92 116.113 33.32H120.993C121.1 34.52 121.566 35.5067 122.393 36.28C123.246 37.0533 124.433 37.44 125.953 37.44C127.526 37.44 128.753 37.0667 129.633 36.32C130.513 35.5467 130.953 34.56 130.953 33.36C130.953 32.4267 130.673 31.6667 130.113 31.08C129.58 30.4933 128.9 30.04 128.073 29.72C127.273 29.4 126.153 29.0533 124.713 28.68C122.9 28.2 121.42 27.72 120.273 27.24C119.153 26.7333 118.193 25.96 117.393 24.92C116.593 23.88 116.193 22.4933 116.193 20.76C116.193 19.16 116.593 17.76 117.393 16.56C118.193 15.36 119.313 14.44 120.753 13.8C122.193 13.16 123.86 12.84 125.753 12.84C128.446 12.84 130.646 13.52 132.353 14.88C134.086 16.2133 135.046 18.0533 135.233 20.4H130.193C130.113 19.3867 129.633 18.52 128.753 17.8C127.873 17.08 126.713 16.72 125.273 16.72C123.966 16.72 122.9 17.0533 122.073 17.72C121.246 18.3867 120.833 19.3467 120.833 20.6C120.833 21.4533 121.086 22.16 121.593 22.72C122.126 23.2533 122.793 23.68 123.593 24C124.393 24.32 125.486 24.6667 126.873 25.04C128.713 25.5467 130.206 26.0533 131.353 26.56C132.526 27.0667 133.513 27.8533 134.313 28.92C135.14 29.96 135.553 31.36 135.553 33.12C135.553 34.5333 135.166 35.8667 134.393 37.12C133.646 38.3733 132.54 39.3867 131.073 40.16C129.633 40.9067 127.926 41.28 125.953 41.28ZM146.254 22.68V34.88C146.254 35.7067 146.44 36.3067 146.814 36.68C147.214 37.0267 147.88 37.2 148.814 37.2H151.614V41H148.014C145.96 41 144.387 40.52 143.294 39.56C142.2 38.6 141.654 37.04 141.654 34.88V22.68H139.054V18.96H141.654V13.48H146.254V18.96H151.614V22.68H146.254ZM154.296 29.88C154.296 27.6667 154.75 25.7067 155.656 24C156.59 22.2933 157.843 20.9733 159.416 20.04C161.016 19.08 162.776 18.6 164.696 18.6C166.43 18.6 167.936 18.9467 169.216 19.64C170.523 20.3067 171.563 21.1467 172.336 22.16V18.96H176.936V41H172.336V37.72C171.563 38.76 170.51 39.6267 169.176 40.32C167.843 41.0133 166.323 41.36 164.616 41.36C162.723 41.36 160.99 40.88 159.416 39.92C157.843 38.9333 156.59 37.5733 155.656 35.84C154.75 34.08 154.296 32.0933 154.296 29.88ZM172.336 29.96C172.336 28.44 172.016 27.12 171.376 26C170.763 24.88 169.95 24.0267 168.936 23.44C167.923 22.8533 166.83 22.56 165.656 22.56C164.483 22.56 163.39 22.8533 162.376 23.44C161.363 24 160.536 24.84 159.896 25.96C159.283 27.0533 158.976 28.36 158.976 29.88C158.976 31.4 159.283 32.7333 159.896 33.88C160.536 35.0267 161.363 35.9067 162.376 36.52C163.416 37.1067 164.51 37.4 165.656 37.4C166.83 37.4 167.923 37.1067 168.936 36.52C169.95 35.9333 170.763 35.08 171.376 33.96C172.016 32.8133 172.336 31.48 172.336 29.96ZM202.766 18.96L189.246 51.36H184.526L189.006 40.64L180.326 18.96H185.406L191.606 35.76L198.046 18.96H202.766Z" fill="#222222"/>
<path d="M13.9176 12.495H34.0326L36.4176 19.695L33.1326 20.82L31.3326 16.005H22.1526V23.61H30.3426V27.12H22.1526L22.1076 35.49H32.3226L34.0776 30.765L37.3626 31.89L34.9776 39H13.8726V35.49H18.0576L18.1026 16.005H13.9176V12.495Z" fill="black"/>
<path d="M70.0282 12.495H89.2432V15.105L74.4382 35.49H85.1482L86.8582 30.81L90.2332 31.935L87.8482 39H69.2182V36.165L83.8432 16.005H72.9532L72.0982 20.28L68.7682 19.785L70.0282 12.495Z" fill="black"/>
</svg>
